<svg width="45" height="44" viewBox="0 0 45 44" fill="none" xmlns="http://www.w3.org/2000/svg">
<path d="M43.7336 28.5865H43.4962V27.1283C43.4962 26.4588 42.9474 25.914 42.273 25.914H41.0314L35.6738 20.596C35.651 20.5733 35.6266 20.5535 35.6015 20.5348V13.2534H39.4683C39.7216 13.2534 39.9528 13.1102 40.0642 12.8841C40.1755 12.6582 40.1475 12.3891 39.992 12.1906L37.3383 8.80297C37.2126 8.64255 37.0193 8.54868 36.8145 8.54868H35.4122L13.8354 0.0473268C13.8144 0.0389854 13.7929 0.0316976 13.7709 0.0254634C13.7639 0.0234439 13.7568 0.0221268 13.7497 0.0203707C13.7366 0.017122 13.7234 0.0136976 13.7099 0.011239C13.6972 0.0088683 13.6845 0.00737561 13.6717 0.00579512C13.6639 0.00482927 13.6561 0.0035122 13.6481 0.00280976C13.6325 0.00140488 13.6172 0.000878046 13.6017 0.000614632C13.5973 0.000526827 13.5929 0 13.5884 0H13.5786C13.5764 0 13.5742 0 13.572 0H11.939C11.595 0 11.3081 0.261044 11.2781 0.6012L10.5786 8.54877H6.10185C6.08 7.69812 5.37756 7.01236 4.51537 7.01236H1.58851C0.712609 7.01227 0 7.71963 0 8.58908V13.3072C0 14.1766 0.712609 14.884 1.58851 14.884H4.51537C5.39127 14.884 6.10388 14.1766 6.10388 13.3072V13.2534H10.3136L9.52593 39.2657H8.92062C7.61128 39.2657 6.54608 40.3231 6.54608 41.6228V43.3415C6.54608 43.7052 6.84312 44 7.20951 44H8.40058C8.76697 44 9.06401 43.7052 9.06401 43.3415C9.06401 42.9778 8.76697 42.6829 8.40058 42.6829H7.87293V41.6228C7.87293 41.0493 8.34291 40.5828 8.92062 40.5828H10.8821H17.3185C17.8963 40.5828 18.3662 41.0493 18.3662 41.6228V42.6829H11.0542C10.6878 42.6829 10.3908 42.9778 10.3908 43.3415C10.3908 43.7052 10.6878 44 11.0542 44H19.0297C19.396 44 19.6931 43.7052 19.6931 43.3415V41.6228C19.6931 40.3231 18.6279 39.2657 17.3185 39.2657H16.0045L15.2169 13.2534H18.8857V16.538C18.8857 17.4791 19.6571 18.2447 20.6052 18.2447H25.6952C26.6433 18.2447 27.4147 17.4791 27.4147 16.538V13.2534H34.2744V20.4798C34.2175 20.5097 34.164 20.5484 34.1161 20.596L28.7585 25.914H27.4261C26.7516 25.914 26.2028 26.4588 26.2028 27.1283V28.5865H25.5851C24.8867 28.5865 24.3187 29.1503 24.3187 29.8436V31.0823C24.3187 31.7755 24.8867 32.3393 25.5851 32.3393H27.3652C27.7316 32.3393 28.0286 32.0445 28.0286 31.6808C28.0286 31.3171 27.7316 31.0223 27.3652 31.0223H25.6455V29.9035H43.6729V31.0223H30.0192C29.6528 31.0223 29.3558 31.3171 29.3558 31.6808C29.3558 32.0445 29.6528 32.3393 30.0192 32.3393H43.7336C44.4318 32.3393 45 31.7755 45 31.0823V29.8436C45 29.1504 44.4318 28.5865 43.7336 28.5865ZM12.547 1.31707H12.9804L13.617 8.54877H11.9105L12.547 1.31707ZM4.77703 13.3072C4.77703 13.4504 4.65965 13.5669 4.51537 13.5669H1.58851C1.44424 13.5669 1.32685 13.4504 1.32685 13.3072V8.58908C1.32685 8.44587 1.44424 8.32935 1.58851 8.32935H4.51537C4.65965 8.32935 4.77703 8.44587 4.77703 8.58908V9.20731V12.5949V13.3072ZM6.10388 9.86585H19.5493C19.9157 9.86585 20.2128 9.571 20.2128 9.20731C20.2128 8.84362 19.9157 8.54877 19.5493 8.54877H14.9488L14.3428 1.66425L31.8157 8.54877H22.2031C21.8367 8.54877 21.5396 8.84362 21.5396 9.20731C21.5396 9.571 21.8367 9.86585 22.2031 9.86585H35.2813C35.2826 9.86585 35.2838 9.86602 35.285 9.86602C35.2858 9.86602 35.2865 9.86585 35.2873 9.86585H36.4899L38.1119 11.9364H26.7513H19.5493H6.1038L6.10388 9.86585ZM11.4822 18.5022L13.4843 19.941L11.35 22.8672L11.4822 18.5022ZM11.5972 32.2183L14.3601 28.792L14.5276 34.3258L11.5972 32.2183ZM11.8027 24.4924L14.1332 21.2972L14.2839 26.2768L11.8027 24.4924ZM11.2633 25.731L13.71 27.4905L11.1125 30.7116L11.2633 25.731ZM13.71 35.3642L10.8648 38.8926L11.03 33.4369L13.71 35.3642ZM11.9914 17.2422L13.9331 14.6861L14.0555 18.7255L11.9914 17.2422ZM13.3595 13.2534L11.5697 15.6096L11.641 13.2534H13.3595ZM12.2635 39.2656L14.5899 36.3807L14.6772 39.2656H12.2635ZM26.0881 16.538C26.0881 16.7528 25.912 16.9276 25.6955 16.9276H20.6054C20.389 16.9276 20.2129 16.7528 20.2129 16.538V13.2534H26.0881V16.538ZM39.1549 25.914H35.6015V22.3868L39.1549 25.914ZM34.2747 22.3015V25.9141H30.6352L34.2747 22.3015ZM27.5299 27.2311H42.1694V28.5865H27.5299V27.2311Z" fill="#EC3030"/>
</svg>
