<svg width="45" height="45" viewBox="0 0 45 45" fill="none" xmlns="http://www.w3.org/2000/svg">
<path d="M21.9161 0.257192L2.8672 16.8632H2.86329C2.64793 17.0529 2.5895 17.3651 2.67564 17.6005C2.76135 17.8349 3.01056 18.0962 3.29861 18.0977H7.97569V34.0626C7.84516 34.2079 7.72089 34.36 7.60419 34.5189L6.14677 30.9887C6.32903 30.8601 6.40449 30.6185 6.31537 30.4038L5.67144 28.8417L6.15058 27.7034C6.35808 27.2196 6.35738 26.6723 6.15725 26.1878C5.74671 25.2006 4.60057 24.7219 3.61201 25.1333L1.19917 26.1373C0.212241 26.5504 -0.263503 27.6955 0.148497 28.6864C0.348074 29.1661 0.730201 29.5523 1.22489 29.7523L2.3632 30.2134L3.00999 31.7755C3.09757 31.9898 3.32064 32.1073 3.53961 32.0718L5.77623 37.4833C4.88312 38.7976 3.87368 40.031 2.76518 41.1716L0.80005 43.2025C0.499128 43.5115 0.717432 44.0301 1.14869 44.0303H40.6543C40.9236 44.0293 41.1411 43.81 41.1401 43.5406V40.603H43.5167C43.7846 40.602 44.0014 40.385 44.0025 40.1172V36.6927C44.0035 36.4233 43.7861 36.2041 43.5167 36.203H41.1401V33.2654C41.1391 32.9975 40.9221 32.7806 40.6543 32.7796H38.1862L38.571 27.3938H38.6386C38.9081 27.3948 39.1273 27.1774 39.1283 26.908C39.1292 26.6374 38.91 26.4178 38.6396 26.4183C38.6406 26.1483 38.422 25.9287 38.1519 25.9287H37.2384V18.0977H41.9117C42.2009 18.0977 42.4561 17.836 42.5423 17.6005C42.6285 17.365 42.5698 17.0527 42.3527 16.8632L23.291 0.257192C23.0959 0.0863159 22.8505 1.8445e-05 22.6042 1.18045e-08C22.358 -3.68546e-05 22.1117 0.0862791 21.9161 0.257192ZM22.1204 1.36882V4.7819L8.27968 17.1204L4.10936 17.0719L22.1204 1.36882ZM23.0958 1.37805L41.1088 17.0725C39.7178 17.0909 38.3266 17.1045 36.9356 17.12L23.0958 4.7819V1.37805ZM22.6072 5.65602L23.5826 6.5257V10.7608H21.6308V6.52666L22.6072 5.65602ZM20.6592 7.39251V10.7608H18.7255V9.11573L20.6592 7.39251ZM24.558 7.39623L26.5088 9.13559V10.7616H24.558V7.39623ZM17.75 9.98626V18.3983C17.75 19.4684 18.2572 20.6835 18.9455 21.1988C20.0921 21.9743 22.1132 23.4378 22.6062 23.7955V33.7565C22.6052 34.0273 22.825 34.2471 23.0958 34.2461H26.5088V36.2046C24.3632 36.2031 22.2378 36.2193 20.0933 36.2193V25.6163C20.0933 24.7759 19.3906 24.0931 18.5492 24.0931H11.9575C11.1162 24.0931 10.4163 24.7759 10.4163 25.6163V32.4347C9.8539 32.6336 9.40395 32.8873 8.95123 33.1892V17.8291L17.75 9.98626ZM27.4852 10.0054L29.4361 11.7448V20.0578H27.4852V10.0054ZM18.7255 11.7381H26.5088V13.7004H18.7255V11.7381ZM30.4115 12.6145L32.4043 14.391L32.3833 17.6135H30.4115L30.4115 12.6145ZM18.7255 14.672H20.6592V17.6135H18.7255V14.672ZM21.6308 14.672H23.5826V20.0578H23.0958C22.825 20.0568 22.6052 20.2766 22.6062 20.5474V22.5916C22.3161 22.3808 22.0068 22.1587 21.6308 21.89V14.672ZM24.558 14.672H26.5088V17.6135H24.558V14.672ZM33.3387 15.2235L36.2621 17.8298V22.9955H34.8009V20.5474C34.8019 20.2762 34.5839 20.0568 34.3141 20.0563H33.3387V15.2235ZM20.6592 18.589V21.2018C20.2509 20.9142 19.858 20.6402 19.5351 20.4216C19.0574 19.8364 18.7606 19.2412 18.7331 18.589H20.6592ZM24.558 18.589H26.5088V20.0578H24.558V18.589ZM30.4115 18.589H32.3766L32.3661 20.0578H30.4115L30.4115 18.589ZM23.5826 21.0332H31.8737V22.0163H23.5826V21.0332ZM25.5334 33.2709V22.9927H31.8737V24.4616C31.8746 24.731 32.0938 24.9484 32.3633 24.9474C32.6313 24.9464 32.8482 24.7296 32.8491 24.4616V21.0332H33.8245V24.4614C33.8255 24.7308 34.0448 24.9484 34.3141 24.9473C34.5824 24.9468 34.7999 24.7297 34.8009 24.4614V23.9719H36.2621V25.9303H31.8127C31.5434 25.9313 31.3259 26.1506 31.3269 26.4199H31.323C31.0536 26.4209 30.8352 26.6401 30.8363 26.9095C30.8372 27.1776 31.055 27.3944 31.323 27.3953H31.3927L31.7756 32.7811H26.9985C26.7291 32.7802 26.51 33.0015 26.5089 33.2709H25.5334ZM23.5826 22.9927H24.558V33.2708H23.5826V22.9927ZM18.5492 25.0692C18.8737 25.0692 19.1179 25.3141 19.1179 25.6169V36.2198H18.3254C18.1216 35.8818 17.9239 35.5398 17.7348 35.1929C16.6773 33.2653 14.6535 32.0609 12.4576 32.0609C12.1019 32.0624 11.7456 32.0991 11.3917 32.1667V25.6169C11.3917 25.3141 11.6331 25.0692 11.9575 25.0692H18.5492ZM4.3656 25.958C4.74402 25.9589 5.09972 26.1851 5.2572 26.5638C5.35987 26.8122 5.35643 27.0792 5.25329 27.321L4.7713 28.4679L2.73662 29.3138L1.58307 28.8461C1.33917 28.749 1.14901 28.557 1.04773 28.3136C0.838793 27.8111 1.07188 27.249 1.57355 27.0391L3.98639 26.0341C4.11118 25.982 4.23946 25.9576 4.3656 25.958ZM4.05983 26.7219C4.00483 26.7256 3.95072 26.7367 3.8998 26.7581L2.14328 27.4887C1.89332 27.5906 1.77377 27.8763 1.87656 28.1259C1.98004 28.3744 2.26525 28.4921 2.51382 28.3888L4.27416 27.662C4.52263 27.5586 4.64029 27.2733 4.53707 27.0248C4.45868 26.8325 4.26717 26.711 4.05983 26.7219ZM32.3347 26.9057H33.2739V27.8849C33.273 28.1558 33.4927 28.3756 33.7636 28.3746C34.0329 28.3736 34.2504 28.1543 34.2494 27.8849V26.9057H35.2257V30.333C35.2267 30.6025 35.4459 30.8199 35.7154 30.8188C35.9834 30.8179 36.2002 30.6011 36.2012 30.333V26.9057H37.63L37.209 32.7811H33.8245H32.7519L32.3347 26.9057ZM17.2423 29.8434V30.3578H17.2138C16.944 30.3583 16.7259 30.5777 16.727 30.8474C16.7275 31.116 16.9452 31.3336 17.2138 31.3342H17.2423V31.8019C17.2433 32.0712 17.4626 32.2887 17.7319 32.2877C17.9998 32.2867 18.2167 32.0697 18.2178 31.8019V29.8435C18.2168 29.5756 17.9998 29.3586 17.7319 29.3576C17.4626 29.3566 17.2434 29.574 17.2423 29.8434ZM4.87903 29.4833L5.22863 30.3292L3.72358 30.956L3.37399 30.1063L4.87903 29.4833ZM5.24958 31.377L6.97181 35.553L6.84131 35.7836C6.70469 36.0216 6.56418 36.2578 6.42028 36.4913L4.44657 31.7103L5.24958 31.377ZM16.8804 35.6617C17.7413 37.2243 18.6895 38.6265 19.7295 39.9158C19.6995 39.9792 19.6836 40.0485 19.6828 40.1187V43.0564H2.30046L3.46734 41.8542C5.09542 40.179 6.51367 38.3071 7.67957 36.277C7.80289 36.0725 7.91976 35.8646 8.03202 35.6578C8.47244 34.8492 9.12219 34.199 9.88666 33.7422C10.6404 33.2989 11.5486 33.063 12.4576 33.0364C14.298 33.0364 15.9946 34.0437 16.8804 35.6617ZM27.4852 33.7565H33.3387V36.2046H27.4852V33.7565ZM34.3141 33.7565H40.1648V36.2046H34.3141V33.7565ZM13.7683 34.7357C13.6385 34.7358 13.5141 34.7875 13.4226 34.8795C13.2309 35.0702 13.2309 35.3804 13.4226 35.5711L13.4835 35.6321C13.6742 35.8238 13.9844 35.8238 14.1751 35.6321C14.3661 35.4416 14.3661 35.1321 14.1751 34.9415L14.1141 34.8796C14.0226 34.7876 13.8981 34.7357 13.7683 34.7357ZM12.4471 36.839C12.2586 37.0291 12.2586 37.3356 12.4471 37.5258L12.5081 37.5877C12.6977 37.7805 13.0079 37.7823 13.1997 37.5914C13.3913 37.4008 13.3913 37.0905 13.1997 36.8998L13.1377 36.8389C13.0462 36.7469 12.9218 36.6951 12.792 36.6945C12.6623 36.6945 12.5383 36.7468 12.4471 36.839ZM24.0722 37.1809H29.9219V39.6329H24.0722V37.1809ZM30.8982 37.1809H36.7517V39.6329H30.8982V37.1809ZM37.7272 37.1809H43.031V39.6329H37.7272V37.1809ZM18.9407 37.1957H23.0958V39.6333H20.7963C20.0842 38.8393 19.4834 38.009 18.9407 37.1957ZM8.54735 37.8149C8.35485 38.0047 8.35353 38.315 8.54442 38.5065L8.60538 38.5675C8.79594 38.7585 9.10543 38.7585 9.29599 38.5675C9.48514 38.3772 9.48514 38.07 9.29599 37.8797L9.23503 37.8187C9.14443 37.7276 9.02154 37.6758 8.89309 37.6743C8.76372 37.6729 8.63934 37.724 8.54735 37.8149ZM15.3734 37.8149C15.1817 38.0055 15.1817 38.3158 15.3734 38.5065L15.4353 38.5675C15.6254 38.756 15.932 38.756 16.1221 38.5675C16.3123 38.3783 16.3141 38.071 16.126 37.8797L16.0651 37.8187C15.9735 37.7267 15.8491 37.6749 15.7192 37.6743C15.5898 37.6729 15.4654 37.724 15.3734 37.8149ZM7.63003 39.7733L7.56811 39.8344C7.3775 40.0261 7.37925 40.3363 7.57202 40.5259C7.76226 40.7151 8.06954 40.7151 8.25977 40.5259L8.32074 40.4649C8.51242 40.2742 8.51242 39.964 8.32074 39.7733C8.22882 39.683 8.10484 39.6332 7.97539 39.6332C7.84593 39.6322 7.72194 39.6828 7.63003 39.7733ZM17.3252 39.7733C17.1335 39.964 17.1335 40.2743 17.3252 40.4649L17.3862 40.5259C17.5764 40.7151 17.8837 40.7151 18.0739 40.5259C18.2667 40.3363 18.2684 40.0261 18.0778 39.8344L18.0168 39.7733C17.9247 39.6827 17.8003 39.6333 17.671 39.6333C17.5417 39.6323 17.4173 39.6827 17.3252 39.7733ZM20.6554 40.6049H26.5088V43.0568H23.755H20.6554V40.6049ZM27.4852 40.6049H33.3387V43.0568H27.4852V40.6049ZM34.3141 40.6049H40.1648V43.0568H34.3141V40.6049ZM10.4991 40.7526C10.3089 40.9418 10.3072 41.249 10.4952 41.4404L10.5562 41.5013C10.7458 41.6941 11.056 41.6959 11.2478 41.5051C11.4394 41.3144 11.4394 41.0041 11.2478 40.8135L11.1868 40.7524C11.0953 40.6605 10.9708 40.6087 10.8411 40.6085C10.7126 40.6095 10.5897 40.6615 10.4991 40.7526ZM14.398 40.7526C14.2088 40.9429 14.2088 41.2501 14.398 41.4404L14.4589 41.5013C14.6485 41.6941 14.9588 41.6959 15.1505 41.5051C15.3422 41.3144 15.3422 41.0041 15.1505 40.8135L15.0895 40.7524C14.998 40.6605 14.8736 40.6087 14.7438 40.6085C14.6139 40.6084 14.4895 40.6606 14.398 40.7526Z" fill="#EC3030"/>
</svg>
