<svg width="45" height="42" viewBox="0 0 45 42" fill="none" xmlns="http://www.w3.org/2000/svg">
<path d="M44.9999 17.4485V14.4675H44.9988C44.9988 14.3686 44.9799 14.2691 44.939 14.1749C44.8234 13.9093 44.5627 13.7378 44.2747 13.7378C44.2735 13.7378 44.2723 13.7378 44.2711 13.7379L36.9579 13.7735L38.2102 12.4278C38.336 12.2926 38.4061 12.1142 38.4061 11.929V9.01005H38.4049C38.4049 8.91201 38.3865 8.81323 38.3462 8.71976C38.2312 8.45293 37.9698 8.28031 37.6808 8.28031H34.4221L38.2102 4.20939C38.336 4.0742 38.4061 3.89583 38.4061 3.71061V0.729742H38.405C38.405 0.630879 38.3862 0.531286 38.3453 0.43717C38.2298 0.171527 37.9688 0 37.6809 0C37.6797 0 37.6786 -5.01494e-08 37.6774 9.12361e-05L24.6208 0.0621659C24.4214 0.0630788 24.2312 0.146606 24.0949 0.293029L9.57497 15.8939L9.57552 15.8944C9.45404 16.0249 9.3791 16.1998 9.3791 16.3926V19.3115C9.3791 19.4401 9.4124 19.5607 9.47046 19.6656L0.195874 29.6317L0.196419 29.6323C0.0749385 29.7627 0 29.9376 0 30.1305V33.0494C0 33.4524 0.324703 33.7791 0.725252 33.7791H3.98498L0.195965 37.8501L0.196509 37.8506C0.0750292 37.981 9.07179e-05 38.1559 9.07179e-05 38.3488V41.2703C9.07179e-05 41.6733 0.324794 42 0.725343 42H13.7845C13.9934 42 14.1811 41.9106 14.3134 41.7684L14.314 41.769L15.9704 39.9884V41.2703C15.9704 41.6733 16.2951 42 16.6957 42H29.7548C29.9637 42 30.1513 41.9106 30.2837 41.7685L30.2842 41.769L44.8041 26.1656C44.93 26.0304 45 25.852 45 25.6668V22.7479H44.9988C44.9988 22.6499 44.9804 22.5511 44.9401 22.4576C44.8252 22.1908 44.5638 22.0182 44.2747 22.0182H41.0151L44.804 17.9472C44.9299 17.8121 44.9999 17.6338 44.9999 17.4485ZM42.5989 15.2054L29.4396 29.4008H18.3682L19.43 28.2597H23.1634C23.3723 28.2597 23.56 28.1703 23.6923 28.0282L23.6928 28.0287L35.5936 15.2396L42.5989 15.2054ZM14.5097 39.423V38.6372L19.0313 33.7791H19.7603L14.5097 39.423ZM2.39803 37.6191L5.07912 34.7385V37.6191H2.39803ZM6.52963 33.7791H7.98013V37.6191H6.52963V33.7791ZM11.1079 20.0414H13.3641L9.57497 24.1124L9.57552 24.1128C9.45404 24.2433 9.3791 24.4182 9.3791 24.6111V27.5299C9.3791 27.933 9.7038 28.2597 10.1044 28.2597H14.5264L13.4691 29.4008H2.39794L11.1079 20.0414ZM10.8295 17.1225H22.4383V18.5818H10.8295V17.1225ZM29.0296 32.3196H17.4208V30.8603H29.0296V32.3196ZM14.5097 30.418L16.5095 28.2597H17.2477L14.5098 31.2023L14.5097 30.418ZM10.8295 26.8002V25.3409H22.4383V26.8002H10.8295ZM15.9087 23.8813V20.0414H17.3591V23.8813H15.9087ZM14.4582 23.8813H11.7771L14.4582 21.0007V23.8813ZM18.8096 20.0414H21.3421L18.8096 22.7637V20.0414ZM11.965 33.7791L9.43045 36.5022V33.7791H11.965ZM13.9772 33.7522C14.1078 33.716 14.2234 33.6442 14.3133 33.5475L14.3139 33.548L15.9704 31.7677V33.0494C15.9704 33.4524 16.2951 33.7791 16.6957 33.7791H17.0442L13.4701 37.6191H10.3781L13.9772 33.7522ZM23.9505 33.7791V37.6191H22.5V33.7791H23.9505ZM25.4009 33.7791H27.9369L25.4009 36.5026V33.7791ZM23.8888 24.8994L36.9556 10.8571V11.6407L23.8888 25.6828V24.8994ZM36.0083 9.73988L22.8491 23.8813H19.7566L23.3531 20.0152C23.485 19.9794 23.6017 19.9073 23.6923 19.8099L23.6929 19.8104L33.0639 9.73997L36.0083 9.73988ZM23.8888 17.4645V16.6802L36.9556 2.58212V3.42241L23.8888 17.4645ZM24.94 1.52001L36.0054 1.46743L22.8482 15.663H11.777L24.94 1.52001ZM1.4505 30.8602H13.0593V32.3195H1.4505V30.8602ZM13.0593 40.5405H1.4505V39.0786H13.0593V40.5405ZM21.0495 34.529V37.6192H18.1747L21.0495 34.529ZM29.0296 40.5405H17.4208V39.0786H29.0296V40.5405ZM30.48 39.4233V38.6371C37.2034 31.4138 41.5601 26.7325 43.5495 24.5948V25.3784L30.48 39.4233ZM42.6022 23.4777C40.6685 25.5555 36.2804 30.2705 29.4405 37.6191H26.349L29.9503 33.7515C30.0798 33.715 30.1943 33.6436 30.2837 33.5476L30.2842 33.5481L39.6569 23.4777H42.6022ZM30.48 31.2027V30.4181L43.5495 16.3197V17.1603L30.48 31.2027Z" fill="#EC3030"/>
</svg>
