<svg width="48" height="44" viewBox="0 0 48 44" fill="none" xmlns="http://www.w3.org/2000/svg">
<path d="M45.5637 9.9525C45.3575 9.9525 45.1597 10.0344 45.0139 10.1802C44.8681 10.3261 44.7862 10.5238 44.7862 10.7301C44.7862 10.9363 44.8681 11.1341 45.0139 11.2799C45.1597 11.4257 45.3575 11.5076 45.5637 11.5076C46.0496 11.5076 46.445 11.903 46.445 12.3889V40.5876C46.445 41.0735 46.0496 41.4688 45.5637 41.4688H5.75381C3.43866 41.4688 1.55512 39.5853 1.55512 37.2701C1.55512 34.955 3.43856 33.0712 5.75381 33.0712C5.96003 33.0712 6.15781 32.9893 6.30363 32.8435C6.44945 32.6977 6.53137 32.4999 6.53137 32.2937V11.5075H10.7301C10.9363 11.5075 11.1341 11.4256 11.2799 11.2798C11.4257 11.134 11.5076 10.9362 11.5076 10.73C11.5076 10.5237 11.4257 10.326 11.2799 10.1801C11.1341 10.0343 10.9363 9.95241 10.7301 9.95241H6.53128V0.777562C6.53128 0.57134 6.44936 0.373564 6.30354 0.227743C6.15772 0.0819214 5.95994 0 5.75372 0C2.58113 0 0 2.58113 0 5.75381V37.27C0 40.4427 2.58113 43.0238 5.75381 43.0238H45.5637C46.9071 43.0238 48 41.9309 48 40.5876V12.3888C48 11.0453 46.9071 9.9525 45.5637 9.9525ZM1.55503 5.75381C1.55503 3.70434 3.03131 1.99303 4.97616 1.62731V31.5686C3.6345 31.7507 2.43816 32.397 1.55503 33.3398V5.75381Z" fill="#EC3030"/>
<path d="M35.6115 9.95235H22.3412C22.135 9.95235 21.9372 10.0343 21.7914 10.1801C21.6455 10.3259 21.5636 10.5237 21.5636 10.7299C21.5636 10.9361 21.6455 11.1339 21.7914 11.2797C21.9372 11.4256 22.135 11.5075 22.3412 11.5075H35.6115C35.8177 11.5075 36.0155 11.4256 36.1613 11.2797C36.3071 11.1339 36.389 10.9361 36.389 10.7299C36.389 10.5237 36.3071 10.3259 36.1613 10.1801C36.0155 10.0343 35.8177 9.95235 35.6115 9.95235ZM36.2289 33.4801L14.6652 5.28144C14.5665 5.15226 14.4297 5.05729 14.2742 5.00987C14.1187 4.96246 13.9522 4.96499 13.7982 5.01711C13.6442 5.06924 13.5104 5.16833 13.4157 5.30045C13.3209 5.43257 13.27 5.59107 13.27 5.75366V33.9523C13.27 34.1586 13.3519 34.3563 13.4978 34.5022C13.6436 34.648 13.8414 34.7299 14.0476 34.7299H35.6113C35.7563 34.7299 35.8984 34.6893 36.0215 34.6127C36.1446 34.5362 36.2439 34.4268 36.3082 34.2968C36.3724 34.1668 36.399 34.0215 36.385 33.8772C36.371 33.7329 36.3169 33.5953 36.2289 33.4801ZM14.8251 33.1748V8.05035L34.0378 33.1748H14.8251Z" fill="#EC3030"/>
<path d="M27.8374 29.3334L18.8121 17.5311C18.7133 17.4021 18.5765 17.3073 18.4211 17.26C18.2656 17.2126 18.0992 17.2152 17.9453 17.2673C17.7913 17.3194 17.6576 17.4185 17.5629 17.5505C17.4681 17.6825 17.4171 17.8409 17.417 18.0034V29.8057C17.417 30.012 17.4989 30.2097 17.6447 30.3556C17.7906 30.5014 17.9883 30.5833 18.1946 30.5833H27.2199C27.3649 30.5832 27.5069 30.5426 27.6301 30.4661C27.7532 30.3895 27.8525 30.2801 27.9167 30.1501C27.981 30.0201 28.0076 29.8748 27.9935 29.7304C27.9795 29.5861 27.9254 29.4486 27.8374 29.3334ZM18.972 29.0283V20.3002L25.6464 29.0283H18.972ZM42.9682 6.29445L41.3095 2.14761C41.2518 2.00329 41.1522 1.87957 41.0235 1.79242C40.8948 1.70527 40.743 1.65869 40.5876 1.65869C40.4322 1.65869 40.2803 1.70527 40.1517 1.79242C40.023 1.87957 39.9234 2.00329 39.8657 2.14761L38.207 6.29445C38.1702 6.3863 38.1513 6.48434 38.1513 6.5833V36.4408C38.1513 37.3269 38.8721 38.0477 39.7582 38.0477H41.4169C42.303 38.0477 43.0238 37.3268 43.0238 36.4408V6.5833C43.0239 6.48435 43.005 6.3863 42.9682 6.29445ZM40.5876 4.52998L41.4296 6.63514H39.7454L40.5876 4.52998ZM41.4688 36.4408C41.4688 36.4545 41.4633 36.4677 41.4536 36.4774C41.4439 36.4871 41.4307 36.4926 41.417 36.4926H39.7583C39.7445 36.4926 39.7314 36.4871 39.7216 36.4774C39.7119 36.4677 39.7065 36.4545 39.7064 36.4408V34.7302H41.4688V36.4408ZM41.4688 33.1751H39.7064V8.19026H41.4688V33.1751Z" fill="#EC3030"/>
</svg>
