<svg width="39" height="40" viewBox="0 0 39 40" fill="none" xmlns="http://www.w3.org/2000/svg">
<path d="M0.0859327 3.57481L2.68495 8.12283C2.77262 8.27652 2.91936 8.3877 3.09095 8.43074L5.5157 9.03693L13.8321 17.3533L14.751 16.4347L6.30445 7.98839C6.22132 7.905 6.11708 7.84593 6.00295 7.81733L3.67308 7.23279L1.46028 3.35832L3.35743 1.46117L7.23351 3.67611L7.81831 6.00598C7.84664 6.12038 7.90598 6.22488 7.9891 6.30801L16.4357 14.7546L17.3543 13.8357L9.03791 5.51927L8.43172 3.09585C8.38869 2.92399 8.2775 2.77698 8.12381 2.68905L3.57553 0.0902945C3.32188 -0.0540361 3.00275 -0.0112714 2.79587 0.194801L0.197121 2.79382C-0.0118914 2.99936 -0.0573288 3.31903 0.0859327 3.57481Z" fill="#EC3030"/>
<path d="M27.0985 12.8049L12.8046 27.099L11.8857 26.18L26.1798 11.8862L27.0985 12.8049Z" fill="#EC3030"/>
<path d="M10.3031 27.6047C10.1855 27.409 9.97436 27.2896 9.74611 27.2896H5.84784C5.61986 27.2896 5.40844 27.409 5.2911 27.6047L3.34184 30.8532C3.21809 31.059 3.21809 31.3164 3.34184 31.5224L5.2911 34.771C5.40844 34.9663 5.61986 35.0861 5.84784 35.0861H9.74611C9.97436 35.0861 10.1855 34.9663 10.3031 34.771L12.2521 31.5224C12.3759 31.3164 12.3759 31.059 12.2521 30.8532L10.3031 27.6047ZM9.3786 33.7866H6.21562L4.65631 31.1878L6.21562 28.5888H9.3786L10.9379 31.1878L9.3786 33.7866Z" fill="#EC3030"/>
<path d="M31.1866 15.5946C35.4778 15.6091 38.9685 12.1419 38.9829 7.85077C38.985 7.19754 38.9049 6.54698 38.7442 5.9138C38.6576 5.56554 38.3051 5.35358 37.9568 5.44018C37.8424 5.46878 37.7382 5.52785 37.6548 5.61097L33.6103 9.65277L30.4014 8.58338L29.3312 5.37523L33.3757 1.32997C33.6293 1.07605 33.629 0.664708 33.3751 0.41106C33.2915 0.327402 33.1862 0.268066 33.071 0.239734C28.9094 -0.814147 24.6819 1.70496 23.628 5.86622C23.4679 6.49754 23.388 7.14649 23.3901 7.79785C23.3917 8.30942 23.4444 8.81939 23.5481 9.32027L9.31895 23.5491C8.81807 23.4457 8.3081 23.393 7.7968 23.3912C3.49066 23.3912 0 26.8818 0 31.188C0 35.4938 3.49066 38.9845 7.7968 38.9845C12.1027 38.9845 15.5933 35.4938 15.5933 31.188C15.5917 30.6764 15.5388 30.1664 15.4354 29.6655L18.8418 26.2591L20.3316 27.7489C20.5856 28.0025 20.9966 28.0025 21.2506 27.7489L21.5753 27.4239C21.8602 27.1408 22.3207 27.1408 22.6057 27.4239C22.8903 27.7077 22.8908 28.1685 22.607 28.4532C22.6067 28.4534 22.6062 28.454 22.6057 28.4545L22.2809 28.7793C22.0273 29.0329 22.0273 29.4442 22.2809 29.6979L30.0315 37.4484C32.07 39.5057 35.3901 39.5207 37.4474 37.4821C39.5044 35.4436 39.5193 32.1232 37.4808 30.0662C37.4698 30.055 37.4586 30.0437 37.4474 30.0325L29.6968 22.2822C29.4432 22.0286 29.0318 22.0286 28.7782 22.2822L28.4535 22.607C28.1683 22.8903 27.708 22.8903 27.4228 22.607C27.1384 22.3231 27.1376 21.8623 27.4215 21.578C27.422 21.5774 27.4226 21.5772 27.4228 21.5766L27.7478 21.2516C28.0015 20.998 28.0015 20.5866 27.7478 20.333L26.258 18.8432L29.6645 15.4367C30.1654 15.5401 30.6753 15.593 31.1866 15.5946ZM33.7394 37.6853C33.2674 37.6844 32.7994 37.5992 32.3576 37.4332L37.4319 32.3587C38.1976 34.3956 37.1673 36.6675 35.1304 37.4332C34.6859 37.6003 34.2147 37.6858 33.7394 37.6853ZM26.3788 20.7988C25.6593 21.6571 25.7721 22.9363 26.6303 23.6555C27.3846 24.2876 28.4839 24.2871 29.2374 23.6536L36.5288 30.9514C36.6079 31.0308 36.6819 31.1145 36.7535 31.1995L31.1984 36.7546C31.1131 36.6832 31.0295 36.6092 30.9501 36.5298L23.6531 29.2323C24.3726 28.3741 24.2598 27.0949 23.4016 26.3756C22.6474 25.7432 21.5478 25.744 20.7943 26.3772L19.7549 25.3378L25.3391 19.7618L26.3788 20.7988ZM29.0024 14.2641L14.2633 29.0003C14.1016 29.1617 14.0367 29.3961 14.0918 29.6177C14.9831 33.1183 12.8679 36.6787 9.36706 37.5698C5.86651 38.4612 2.30608 36.3459 1.41471 32.8451C0.5236 29.3445 2.63885 25.7841 6.13967 24.8927C7.19863 24.6233 8.3081 24.6233 9.36706 24.8927C9.58863 24.947 9.8225 24.8821 9.98447 24.7214L24.7201 9.98499C24.8815 9.82356 24.9465 9.58915 24.8909 9.36785C24.0057 5.90819 26.0926 2.38598 29.5522 1.50049C30.206 1.33344 30.8822 1.26929 31.5558 1.31126L28.1284 4.73991C27.9544 4.91364 27.8935 5.17103 27.9713 5.40437L29.2705 9.3029C29.3355 9.49667 29.4878 9.64902 29.6819 9.71344L33.5804 11.0129C33.8135 11.0907 34.0709 11.0301 34.2449 10.8563L37.6722 7.429C37.6799 7.55302 37.6839 7.6757 37.6839 7.79785C37.7021 11.3679 34.823 14.2767 31.2529 14.2951C30.701 14.2978 30.1509 14.2299 29.6164 14.0931C29.3948 14.0377 29.1604 14.1024 28.999 14.2639H29.0024V14.2641Z" fill="#EC3030"/>
<path d="M33.5961 32.6777L32.6772 33.5966L26.1802 27.0996L27.0988 26.1807L33.5961 32.6777Z" fill="#EC3030"/>
</svg>
